<svg width="18" height="18" viewBox="0 0 18 18" fill="none" xmlns="http://www.w3.org/2000/svg">
<path fill-rule="evenodd" clip-rule="evenodd" d="M15.512 15.9048H2.48797C2.26881 15.9048 2.09082 15.7263 2.09082 15.5065V7.4385H15.9091V15.5065C15.9091 15.7263 15.7311 15.9048 15.512 15.9048ZM2.49174 3.33631H4.11774V3.85094C4.11774 4.25246 4.44213 4.57781 4.84248 4.57781C5.24282 4.57781 5.56721 4.25246 5.56721 3.85094V3.33631H8.27509V3.85094C8.27509 4.25246 8.59948 4.57781 8.99982 4.57781C9.40016 4.57781 9.72455 4.25246 9.72455 3.85094V3.33631H12.4327V3.85094C12.4327 4.25246 12.7571 4.57781 13.1575 4.57781C13.5578 4.57781 13.8822 4.25246 13.8822 3.85094V3.33631H15.5082C15.7294 3.33631 15.9091 3.51687 15.9091 3.73842V5.98475H2.09082V3.73842C2.09082 3.51687 2.27055 3.33631 2.49174 3.33631ZM15.5082 1.88257H13.8822V1.36823C13.8822 0.966706 13.5578 0.641357 13.1575 0.641357C12.7571 0.641357 12.4327 0.966706 12.4327 1.36823V1.88257H9.72455V1.36823C9.72455 0.966706 9.40016 0.641357 8.99982 0.641357C8.59948 0.641357 8.27509 0.966706 8.27509 1.36823V1.88257H5.56721V1.36823C5.56721 0.966706 5.24282 0.641357 4.84248 0.641357C4.44213 0.641357 4.11774 0.966706 4.11774 1.36823V1.88257H2.49174C1.47132 1.88257 0.641357 2.71527 0.641357 3.73842V15.5065C0.641357 16.5279 1.46987 17.3586 2.48797 17.3586H15.512C16.5303 17.3586 17.3586 16.5279 17.3586 15.5065V3.73842C17.3586 2.71527 16.5286 1.88257 15.5082 1.88257ZM6.89711 9.69652H5.53041C5.13835 9.69652 4.82066 10.0083 4.82066 10.3931C4.82066 10.7778 5.13835 11.0896 5.53041 11.0896H6.89711C7.28918 11.0896 7.60686 10.7778 7.60686 10.3931C7.60686 10.0083 7.28918 9.69652 6.89711 9.69652ZM11.1028 9.69652H12.4695C12.8616 9.69652 13.1793 10.0083 13.1793 10.3931C13.1793 10.7778 12.8616 11.0896 12.4695 11.0896H11.1028C10.7108 11.0896 10.3931 10.7778 10.3931 10.3931C10.3931 10.0083 10.7108 9.69652 11.1028 9.69652ZM6.89711 12.4827H5.53041C5.13835 12.4827 4.82066 12.7945 4.82066 13.1793C4.82066 13.564 5.13835 13.8758 5.53041 13.8758H6.89711C7.28918 13.8758 7.60686 13.564 7.60686 13.1793C7.60686 12.7945 7.28918 12.4827 6.89711 12.4827ZM11.1028 12.4827H12.4695C12.8616 12.4827 13.1793 12.7945 13.1793 13.1793C13.1793 13.564 12.8616 13.8758 12.4695 13.8758H11.1028C10.7108 13.8758 10.3931 13.564 10.3931 13.1793C10.3931 12.7945 10.7108 12.4827 11.1028 12.4827Z" fill="#A8A8A8"/>
</svg>
