<svg xmlns="http://www.w3.org/2000/svg" data-type="monochrome" viewBox="0 0 15.706 19.271"
    width="1em" height="1em" fill="none" class="aw__i1xblsiy">
    <path
        d="M13.033 7.739l-.03 8.149H2.705l-.03-8.148c0-2.953 2.226-5.181 5.179-5.183 2.952.002 5.18 2.23 5.18 5.182zm-3.775 9.296c-.194.635-.75 1.066-1.404 1.067-.654-.001-1.21-.432-1.404-1.067zm5.88-1.147h-.947l-.01-8.17c0-3.381-2.409-6-5.746-6.277V.568c0-.37-.292-.566-.582-.568-.288.002-.58.198-.58.568v.873c-3.337.276-5.746 2.896-5.746 6.277l-.01 8.17H.568c-.373 0-.568.293-.568.584 0 .29.195.584.568.584H5.26a2.642 2.642 0 002.593 2.215 2.641 2.641 0 002.593-2.215h4.692c.373 0 .568-.294.568-.584s-.195-.584-.568-.584z"
        fill="currentColor" />
</svg>