<svg xmlns="http://www.w3.org/2000/svg" xmlns:xlink="http://www.w3.org/1999/xlink" width="20" height="20" viewBox="0 0 20 20">
    <defs>
        <path id="uszv0dvs8a" d="M0 0H19.354V19.354H0z"/>
    </defs>
    <g fill="none" fill-rule="evenodd">
        <g>
            <g>
                <g>
                    <g transform="translate(-260 -365) translate(142 256) translate(0 101) translate(118 8)">
                        <mask id="z9hrf3a7rb" fill="#fff">
                            <use xlink:href="#uszv0dvs8a"/>
                        </mask>
                        <path stroke="#FFF" stroke-width=".996" d="M0.498 0.498H18.856V18.856H0.498z"/>
                        <path fill="#38699F" fill-rule="nonzero" stroke="#38699F" stroke-width=".5" d="M9.663 4.032c3.93 0 6.924 2.307 9.395 5.998h0l.296.442-.286.449c-.968 1.522-1.926 2.754-2.978 3.696l2.116 1.554c.18.132.218.385.086.564-.117.16-.33.208-.501.124l-.063-.038-2.28-1.675c-1.581 1.195-3.404 1.788-5.785 1.788-4.338 0-6.698-1.907-9.371-6.005h0L0 10.482l.293-.446C1.25 8.575 2.307 7.326 3.48 6.35l-1.098-.806c-.18-.131-.218-.384-.086-.563.117-.16.33-.208.501-.124l.063.038 1.283.942c1.614-1.155 3.439-1.806 5.52-1.806zM4.165 6.855c-1.263 1-2.256 2.222-2.997 3.306h0l-.215.322c1.577 2.417 3.841 5.645 8.71 5.645 2.13 0 3.771-.612 5.074-1.505L12.799 13.2c-.737.808-1.8 1.315-2.98 1.315-2.226 0-4.031-1.805-4.031-4.032 0-.74.2-1.435.548-2.032zm5.498-2.017c-1.88 0-3.48.621-4.815 1.518L6.81 7.799c.738-.827 1.813-1.348 3.009-1.348 2.226 0 4.032 1.805 4.032 4.032 0 .757-.209 1.465-.571 2.07l2.126 1.563c1.145-.95 2-2.108 2.7-3.176h0l.295-.457c-1.585-2.366-4.424-5.645-8.739-5.645zm-3.069 5.645c0 1.782 1.444 3.226 3.226 3.226.913 0 1.738-.38 2.324-.99L6.991 8.932c-.253.46-.397.989-.397 1.551zM9.82 7.258c-.93 0-1.767.392-2.356 1.021l5.163 3.794c.266-.47.418-1.012.418-1.59 0-1.781-1.444-3.225-3.225-3.225z" mask="url(#z9hrf3a7rb)"/>
                    </g>
                </g>
            </g>
        </g>
    </g>
</svg>
