<svg xmlns="http://www.w3.org/2000/svg" width="20" height="20" viewBox="0 0 20 20">
    <g fill="none" fill-rule="evenodd">
        <path stroke="#FFF" stroke-width=".1" d="M0 0H20V20H0z" opacity=".01"/>
        <g stroke="#000" stroke-width="1.2">
            <path d="M17 7.275c.219 0 .4-.181.4-.4V1c0-.219-.181-.4-.4-.4h-5.875c-.219 0-.4.181-.4.4v5.875c0 .219.181.4.4.4H17zM17.4 11.125c0-.219-.181-.4-.4-.4h-5.875c-.219 0-.4.181-.4.4V17c0 .219.181.4.4.4H17c.219 0 .4-.181.4-.4v-5.875zM7.275 1c0-.219-.181-.4-.4-.4H1C.781.6.6.781.6 1v5.875c0 .219.181.4.4.4h5.875c.219 0 .4-.181.4-.4V1zM1 10.725c-.219 0-.4.181-.4.4V17c0 .219.181.4.4.4h5.875c.219 0 .4-.181.4-.4v-5.875c0-.219-.181-.4-.4-.4H1z" transform="translate(1 1)"/>
        </g>
    </g>
</svg>
