<svg xmlns="http://www.w3.org/2000/svg" width="16" height="16" viewBox="0 0 16 16">
    <g fill="none" fill-rule="evenodd">
        <path stroke="#FFF" stroke-width=".1" d="M0 0H16V16H0z" opacity=".01"/>
        <path fill="#000" fill-rule="nonzero" d="M9.75 15c-.115 0-.228-.034-.324-.098l-3.5-2.333c-.162-.109-.26-.29-.26-.486V7.621L1.129 1.948c-.14-.175-.168-.415-.07-.617.097-.203.301-.331.526-.331h12.832c.225 0 .43.128.526.33.098.203.07.443-.07.618L10.333 7.62v6.796c0 .322-.26.583-.583.583zm-2.917-3.229l2.334 1.556v-5.91c0-.133.045-.261.127-.365l3.909-4.885H2.797l3.909 4.885c.082.104.127.232.127.365v4.354z"/>
    </g>
</svg>
