<?xml version="1.0" encoding="UTF-8"?>
<svg width="20px" height="20px" viewBox="0 0 20 20" version="1.1" xmlns="http://www.w3.org/2000/svg" xmlns:xlink="http://www.w3.org/1999/xlink">
    <title>thong ke icon - sửa@1x</title>
    <g id="thong-ke-icon---sửa" stroke="none" stroke-width="1" fill="none" fill-rule="evenodd">
        <rect id="Rectangle" stroke-opacity="0.01" stroke="#FFFFFF" x="0.5" y="0.5" width="19" height="19"></rect>
        <path d="M8.5,5 L8.5,16 L5,16 L5,5 L8.5,5 Z M13.5,9 L13.5,16 L10,16 L10,9 L13.5,9 Z M3.5,8 L3.5,15.9984439 L1.32126843e-09,15.9984439 L1.32126843e-09,8 L3.5,8 Z M18.5,6 L18.5,15.9980549 L15,15.9980549 L15,6 L18.5,6 Z M2.5,9 L1,9 L1,15 L2.5,15 L2.5,9 Z M7.5,6 L6,6 L6,15 L7.5,15 L7.5,6 Z M12.5,10 L11,10 L11,15 L12.5,15 L12.5,10 Z M17.5,6.99980549 L16,6.99980549 L16,14.9982494 L17.5,14.9982494 L17.5,6.99980549 Z M19,-1.08357767e-13 L18.999,0.841 L19,0.842073584 L18.999,0.843 L19,3 L18.0012192,3 L18,1.551 L12.1620122,5.69233987 L6.98199948,1.94081956 L0.528437695,6 L4.85806595e-09,5.0784552 L7.02223157,0.663024554 L12.1207265,4.3540086 L16.928,1 L16,1.00050889 L16,-1.08357767e-13 L19,-1.08357767e-13 Z" id="Combined-Shape" fill="#38699F" fill-rule="nonzero"></path>
    </g>
</svg>