<svg viewBox="0 0 1897.42 1881.2" xmlns="http://www.w3.org/2000/svg">
    <clipPath id="a" transform="translate(52.71 42.61)">
        <path clip-rule="evenodd" d="m896 1785.88h-896v-1775.78h1792v1775.78z" />
    </clipPath>
    <clipPath id="b" transform="translate(52.71 42.61)">
        <path d="m0 6.68h1792.09v1792.09h-1792.09z" />
    </clipPath>
    <clipPath id="c" transform="translate(52.71 42.61)">
        <path d="m0 6.68h1792.09v1781.55h-1792.09z" />
    </clipPath>
    <clipPath id="d" transform="translate(52.71 42.61)">
        <path clip-rule="evenodd"
            d="m896 10.1c494.85 0 896 397.52 896 887.89s-401.15 887.89-896 887.89-896-397.52-896-887.88 401.15-887.9 896-887.9" />
    </clipPath>
    <clipPath id="e" transform="translate(52.71 42.61)">
        <path clip-rule="evenodd"
            d="m183.93 1436.88c163.73 212.13 421.76 349 712.07 349s548.34-136.87 712.07-349z" />
    </clipPath>
    <clipPath id="f" transform="translate(52.71 42.61)">
        <path clip-rule="evenodd"
            d="m889.53 1385.09c-187.25 0-367 113-448.11 278.5 129 77.6 297.61 122.29 459.51 122.29 154.5 0 306.31-40.69 431.31-111.85-79.3-171.18-251.56-288.94-442.72-288.94" />
    </clipPath>
    <clipPath id="g" transform="translate(52.71 42.61)">
        <path clip-rule="evenodd"
            d="m1352.23 918.36q0-10-.49-20l.05-.26c-21-57.59-41.76-127.2-92.06-169.54l-.16-.3c-30.79-26.93-73.67-58.08-89.71-106.86-.29.35-.6.7-.89 1.05q-1.2 1.44-2.43 2.87l-1.53 1.74q-1.22 1.38-2.47 2.75c-.54.6-1.1 1.19-1.66 1.79-.83.89-1.66 1.77-2.52 2.65-.59.61-1.19 1.21-1.79 1.82q-1.27 1.28-2.58 2.56l-1.92 1.84c-.87.83-1.75 1.66-2.65 2.48l-2 1.84c-.91.81-1.81 1.61-2.74 2.42-.7.61-1.41 1.22-2.13 1.83-.94.79-1.87 1.57-2.83 2.35l-2.23 1.81q-1.45 1.15-2.93 2.29l-2.35 1.79q-1.49 1.12-3 2.22c-.81.59-1.62 1.18-2.44 1.76q-1.56 1.09-3.15 2.17c-.84.58-1.68 1.15-2.54 1.72-1.07.71-2.17 1.41-3.27 2.11-.88.56-1.75 1.12-2.64 1.67-1.11.69-2.25 1.38-3.4 2.06-.91.54-1.8 1.09-2.72 1.62-1.18.68-2.38 1.35-3.57 2-.93.52-1.84 1-2.78 1.55-1.24.68-2.52 1.33-3.79 2-.93.48-1.85 1-2.79 1.45-1.34.68-2.72 1.34-4.08 2-.91.44-1.8.89-2.72 1.32-1.54.73-3.12 1.43-4.69 2.14-.79.35-1.55.71-2.35 1.06q-3.58 1.57-7.28 3.07c-77 31.18-182.26 49.32-292.91 49.32-75.81 0-154.09-8.52-227.49-27.22a405.71 405.71 0 0 0 -31.92 63.33c-32.45 35.48-57.18 68.73-73.27 96.07 1.59 13.94 2.59 42.74 2.59 47.66 0 219.8 170.35 408.56 384.62 441.08l2.06 64.75c0 35.09 18.84 63.54 54.26 63.54s54.25-28.45 54.25-63.54l2-62.36c222.85-24.17 403.06-217.41 403.06-443.47" />
    </clipPath>
    <clipPath id="h" transform="translate(52.71 42.61)">
        <path clip-rule="evenodd"
            d="m749.64 886a37.24 37.24 0 1 1 -37.58 37.24 37.41 37.41 0 0 1 37.58-37.24" />
    </clipPath>
    <clipPath id="i" transform="translate(52.71 42.61)">
        <path clip-rule="evenodd"
            d="m1065.73 886a37.24 37.24 0 1 1 -37.58 37.24 37.41 37.41 0 0 1 37.58-37.24" />
    </clipPath>
    <clipPath id="j" transform="translate(52.71 42.61)">
        <path clip-rule="evenodd"
            d="m1091.07 1108.23c-9.19-5.28-362.89-5.29-372.07 0a19 19 0 0 0 -7 26c37.85 64.64 111.83 104.79 193 104.79s155.15-40.16 193-104.79a19 19 0 0 0 -7-26.05" />
    </clipPath>
    <clipPath id="k" transform="translate(52.71 42.61)">
        <path clip-rule="evenodd"
            d="m513.73 799.43a402.8 402.8 0 0 1 40.87-88.13c73.4 18.7 151.68 27.22 227.49 27.22 110.64 0 216-18.14 292.88-49.26q3.7-1.5 7.28-3.07l2.35-1.06c1.57-.71 3.15-1.41 4.69-2.14.92-.43 1.81-.88 2.72-1.32 1.37-.66 2.74-1.32 4.08-2 .94-.48 1.86-1 2.79-1.45 1.27-.66 2.54-1.32 3.79-2 .94-.51 1.85-1 2.77-1.55 1.2-.67 2.4-1.34 3.57-2 .93-.53 1.82-1.08 2.73-1.62a218.6 218.6 0 0 0 3.4-2.06c.89-.55 1.76-1.12 2.64-1.67 1.1-.7 2.2-1.4 3.27-2.11.86-.57 1.7-1.14 2.54-1.72 1.06-.72 2.11-1.44 3.15-2.17.83-.58 1.64-1.17 2.44-1.76l3-2.22 2.35-1.79q1.48-1.14 2.93-2.29l2.23-1.81q1.42-1.17 2.82-2.35l2.13-1.83c.92-.8 1.83-1.6 2.74-2.42.68-.61 1.36-1.22 2-1.84q1.34-1.24 2.65-2.48c.64-.61 1.28-1.22 1.91-1.84q1.31-1.27 2.58-2.56l1.79-1.82c.85-.88 1.68-1.77 2.52-2.65l1.66-1.79c.84-.91 1.65-1.83 2.47-2.75l1.53-1.74c.82-1 1.63-1.91 2.43-2.87.29-.35.6-.7.89-1 16 48.78 58.92 79.93 89.71 106.86.06.1.1.2.15.29 50.31 42.35 71.06 112 92.07 169.55 32-157.8 130.69-223.43 51.33-388.08-25.65-53.2-47.65-69.17-100.42-83.7a89.9 89.9 0 0 1 17.27-1.48 159.8 159.8 0 0 1 43.94 6.39l1.41.47a55.64 55.64 0 0 1 7 2.78c-15.6-22-43.55-31.29-71.67-31.29-29.27 0-58.71 10.07-74.57 26.33 5.91-113.95-76.19-205.78-261.41-205.79-30.52 0-63.83 2.49-100 7.79-132.39 19.32-285.73 126.77-419.07 126.77-49.16 0-95.6-14.61-137.27-53.64-.89-.85-1.8-1.7-2.69-2.56l-1-1c-1.53-1.49-3.05-3-4.57-4.57.08.8.21 1.65.35 2.51 1.65 10.54 6.68 21.83 13.94 33 9 14.15 22.44 29.86 41.5 44.87a188.37 188.37 0 0 0 31.19 20.81c-74.72-3.12-108.34-32.9-146.15-104.69-20.11 66.95-35.41 121.54 3.68 198.23q2 4 4.09 7.85l.14.26q4.08 7.64 8.28 14.85l.26.44q2 3.41 4 6.72l.52.86q2 3.26 4 6.42l.34.52q2 3.09 4 6.07l.29.44c1.33 2 2.67 3.89 4 5.78l.7 1q2 2.74 3.92 5.36l.66.87c1.36 1.8 2.73 3.58 4.09 5.28 29.73 37.29 67.5 68.23 110.61 93.46 27.35 12 49.57 174.5 54.94 223.14 16.25-27.64 42.26-28.9 64.31-71.28" />
    </clipPath>
    <g clip-path="url(#a)">
        <g clip-path="url(#b)">
            <g clip-path="url(#c)">
                <g clip-path="url(#d)">
                    <g clip-path="url(#c)">
                        <path d="m0 0h1897.42v1881.2h-1897.42z" fill="#f1f1f1" />
                    </g>
                </g>
            </g>
        </g>
    </g>
    <g clip-path="url(#e)">
        <g clip-path="url(#b)">
            <path d="m183.93 1426.78h1529.57v454.41h-1529.57z" fill="#d8d8d8" />
        </g>
    </g>
    <g clip-path="url(#f)">
        <g clip-path="url(#b)">
            <path d="m441.42 1374.99h996.25v506.21h-996.25z" fill="#757575" />
        </g>
    </g>
    <g clip-path="url(#g)">
        <g clip-path="url(#b)">
            <path d="m449.41 611.33h1008.23v971.72h-1008.23z" fill="#bdbdbd" />
        </g>
    </g>
    <g clip-path="url(#h)">
        <g clip-path="url(#b)">
            <path d="m712.06 875.93h180.57v179.89h-180.57z" fill="#757575" />
        </g>
    </g>
    <g clip-path="url(#i)">
        <g clip-path="url(#b)">
            <path d="m1028.15 875.93h180.57v179.89h-180.57z" fill="#757575" />
        </g>
    </g>
    <g clip-path="url(#j)">
        <g clip-path="url(#b)">
            <path d="m709.41 1094.16h496.65v240.22h-496.65z" fill="#757575" />
        </g>
    </g>
    <g clip-path="url(#k)">
        <g clip-path="url(#b)">
            <path d="m220.27 213.66h1318.44v779.8h-1318.44z" fill="#757575" />
        </g>
    </g>
</svg>