<svg width="24" height="22" viewBox="0 0 24 22" fill="none" xmlns="http://www.w3.org/2000/svg">
<path d="M22.5 21.5H1.49998C1.19056 21.5 0.893814 21.3771 0.675022 21.1583C0.456229 20.9395 0.333313 20.6428 0.333313 20.3333V11.5682C0.333295 11.4015 0.369002 11.2367 0.43803 11.085C0.507058 10.9332 0.607803 10.798 0.73348 10.6885L4.99998 6.968V1.66667C4.99998 1.35725 5.1229 1.0605 5.34169 0.841709C5.56048 0.622916 5.85723 0.5 6.16665 0.5H22.5C22.8094 0.5 23.1061 0.622916 23.3249 0.841709C23.5437 1.0605 23.6666 1.35725 23.6666 1.66667V20.3333C23.6666 20.6428 23.5437 20.9395 23.3249 21.1583C23.1061 21.3771 22.8094 21.5 22.5 21.5ZM8.49998 19.1667H12V12.099L7.33331 8.02967L2.66665 12.099V19.1667H6.16665V14.5H8.49998V19.1667ZM14.3333 19.1667H21.3333V2.83333H7.33331V5.31483C7.60631 5.31483 7.88048 5.4105 8.09981 5.603L13.9331 10.6885C14.0588 10.798 14.1596 10.9332 14.2286 11.085C14.2976 11.2367 14.3333 11.4015 14.3333 11.5682V19.1667ZM16.6666 9.83333H19V12.1667H16.6666V9.83333ZM16.6666 14.5H19V16.8333H16.6666V14.5ZM16.6666 5.16667H19V7.5H16.6666V5.16667ZM12 5.16667H14.3333V7.5H12V5.16667Z" fill="#222222"/>
</svg>
