<svg xmlns="http://www.w3.org/2000/svg" xmlns:xlink="http://www.w3.org/1999/xlink" width="16" height="20" viewBox="0 0 16 20">
    <defs>
        <path id="prefix__a" d="M16 0L16 20 0 20 0 0 16 0z"/>
    </defs>
    <g fill="none" fill-rule="evenodd">
        <mask id="prefix__b" fill="#fff">
            <use xlink:href="#prefix__a"/>
        </mask>
        <g mask="url(#prefix__b)">
            <path fill="#000" d="M7.546 0C3.38 0 0 3.321 0 7.418c0 1.992.803 3.894 2.103 5.327l5.443 6.221 5.444-6.22c1.3-1.434 2.103-3.336 2.103-5.328C15.093 3.321 11.714 0 7.546 0m0 1.123c3.532 0 6.405 2.824 6.405 6.295 0 1.64-.661 3.31-1.814 4.58l-.007.007-.006.008-4.578 5.232-4.577-5.232-.007-.008-.006-.007c-1.153-1.27-1.814-2.94-1.814-4.58 0-3.471 2.873-6.295 6.404-6.295"/>
            <path stroke="#000" stroke-width="1.2" d="M7.546 10.253c-1.62 0-2.934-1.291-2.934-2.885 0-1.593 1.314-2.884 2.934-2.884 1.621 0 2.935 1.291 2.935 2.884 0 1.594-1.314 2.885-2.935 2.885"/>
        </g>
    </g>
</svg>
