<svg width="82" height="69" viewBox="0 0 82 69" fill="none" xmlns="http://www.w3.org/2000/svg">
<path d="M1 40.4326L17.3265 24.8239H64.6735L81 40.4326V62.5425C81 65.3039 78.7614 67.5425 76 67.5425H6C3.23858 67.5425 1 65.3039 1 62.5425V40.4326Z" stroke="#A8A8A8" stroke-width="2" stroke-linecap="round" stroke-linejoin="round"/>
<path d="M1 40.4326L17.3265 24.8239H64.6735L81 40.4326V62.5424C81 65.3039 78.7614 67.5425 76 67.5425H6C3.23858 67.5425 1 65.3039 1 62.5425V40.4326Z" fill="#E1E1E3" stroke="#A8A8A8" stroke-width="2" stroke-linecap="round" stroke-linejoin="round"/>
<path fill-rule="evenodd" clip-rule="evenodd" d="M21.4082 40.4326L1 40.4326V62.5424C1 65.3039 3.23858 67.5424 6 67.5424H76C78.7614 67.5424 81 65.3039 81 62.5424V40.4326L60.5918 40.4326C60.5918 45.4233 56.546 49.4692 51.5552 49.4692H30.4448C25.454 49.4692 21.4082 45.4233 21.4082 40.4326Z" fill="white"/>
<path d="M1 40.4326L1 39.4326C0.734784 39.4326 0.48043 39.5379 0.292893 39.7254C0.105357 39.913 0 40.1673 0 40.4326H1ZM21.4082 40.4326H22.4082C22.4082 39.8803 21.9604 39.4326 21.4082 39.4326V40.4326ZM81 40.4326H82C82 40.1673 81.8946 39.913 81.7071 39.7254C81.5196 39.5379 81.2652 39.4326 81 39.4326V40.4326ZM60.5918 40.4326V39.4326C60.0396 39.4326 59.5918 39.8803 59.5918 40.4326H60.5918ZM1 41.4326L21.4082 41.4326V39.4326L1 39.4326L1 41.4326ZM2 62.5424V40.4326H0V62.5424H2ZM6 66.5424C3.79086 66.5424 2 64.7516 2 62.5424H0C0 65.8561 2.68629 68.5424 6 68.5424V66.5424ZM76 66.5424H6V68.5424H76V66.5424ZM80 62.5424C80 64.7516 78.2091 66.5424 76 66.5424V68.5424C79.3137 68.5424 82 65.8561 82 62.5424H80ZM80 40.4326V62.5424H82V40.4326H80ZM60.5918 41.4326L81 41.4326V39.4326L60.5918 39.4326V41.4326ZM59.5918 40.4326C59.5918 44.8711 55.9937 48.4692 51.5552 48.4692V50.4692C57.0983 50.4692 61.5918 45.9756 61.5918 40.4326H59.5918ZM51.5552 48.4692H30.4448V50.4692H51.5552V48.4692ZM30.4448 48.4692C26.0063 48.4692 22.4082 44.8711 22.4082 40.4326H20.4082C20.4082 45.9756 24.9017 50.4692 30.4448 50.4692V48.4692Z" fill="#A8A8A8"/>
<path d="M41.4081 1V9.62587" stroke="#A8A8A8" stroke-width="2" stroke-linecap="round" stroke-linejoin="round"/>
<path d="M59.7754 5.10754L55.0815 12.0904" stroke="#A8A8A8" stroke-width="2" stroke-linecap="round" stroke-linejoin="round"/>
<path d="M23.0407 5.10754L27.7346 12.0904" stroke="#A8A8A8" stroke-width="2" stroke-linecap="round" stroke-linejoin="round"/>
</svg>
