<svg xmlns="http://www.w3.org/2000/svg" width="53" height="39" viewBox="0 0 51 36">
    <g fill="none" fill-rule="evenodd" stroke="none" stroke-width="1">
        <g fill="#a1ce46" transform="translate(-162 -387)">
            <g transform="translate(12 374)">
                <g transform="translate(150 13.08)">
                    <path
                        d="M26.43 11.167c-4.443 0-8.044 3.5-8.044 7.817s3.601 7.817 8.043 7.817c4.443 0 8.044-3.5 8.044-7.817s-3.601-7.817-8.044-7.817" />
                    <g>
                        <path
                            d="M26.43 29.035c-5.712 0-10.343-4.5-10.343-10.05 0-5.552 4.63-10.051 10.342-10.051 5.712 0 10.342 4.5 10.342 10.05 0 5.551-4.63 10.05-10.342 10.05M45.964 4.468h-9.193L34.473 0H18.386l-2.299 4.467H4.597S0 4.467 0 8.934v22.334c0 4.467 4.596 4.467 4.596 4.467h41.368s4.597 0 4.597-4.467V8.934c0-4.467-4.597-4.467-4.597-4.467" />
                    </g>
                </g>
            </g>
        </g>
    </g>
</svg>