<svg width="30" height="30" viewBox="0 0 30 30" fill="none" xmlns="http://www.w3.org/2000/svg">
<path fill-rule="evenodd" clip-rule="evenodd" d="M3 0H25.9758C27.0804 0 27.9758 0.89543 27.9758 2V29L23.4799 25L18.9839 29L14.4879 25L9.99195 29L5.49597 25L1 29V2C1 0.89543 1.89543 0 3 0ZM25.9758 24.5437V2H3V24.5437L5.49597 22.323L9.99195 26.323L14.4879 22.323L18.9839 26.323L23.4799 22.323L25.9758 24.5437ZM5.42857 6.5C5.42857 7.05228 5.87629 7.5 6.42857 7.5H17.9059C18.4581 7.5 18.9059 7.05228 18.9059 6.5C18.9059 5.94772 18.4581 5.5 17.9059 5.5H6.42857C5.87629 5.5 5.42857 5.94772 5.42857 6.5ZM6.44737 12.5C5.89508 12.5 5.44737 12.0523 5.44737 11.5C5.44737 10.9477 5.89508 10.5 6.44737 10.5H22.4156C22.9679 10.5 23.4156 10.9477 23.4156 11.5C23.4156 12.0523 22.9679 12.5 22.4156 12.5H6.44737ZM5.44737 16.5C5.44737 17.0523 5.89508 17.5 6.44737 17.5H22.4156C22.9679 17.5 23.4156 17.0523 23.4156 16.5C23.4156 15.9477 22.9679 15.5 22.4156 15.5H6.44737C5.89508 15.5 5.44737 15.9477 5.44737 16.5Z" fill="#E1E1E3"/>
<mask id="mask0_0_16179" style="mask-type:alpha" maskUnits="userSpaceOnUse" x="1" y="0" width="27" height="29">
<path fill-rule="evenodd" clip-rule="evenodd" d="M3 0H25.9758C27.0804 0 27.9758 0.89543 27.9758 2V29L23.4799 25L18.9839 29L14.4879 25L9.99195 29L5.49597 25L1 29V2C1 0.89543 1.89543 0 3 0ZM25.9758 24.5437V2H3V24.5437L5.49597 22.323L9.99195 26.323L14.4879 22.323L18.9839 26.323L23.4799 22.323L25.9758 24.5437ZM5.42857 6.5C5.42857 7.05228 5.87629 7.5 6.42857 7.5H17.9059C18.4581 7.5 18.9059 7.05228 18.9059 6.5C18.9059 5.94772 18.4581 5.5 17.9059 5.5H6.42857C5.87629 5.5 5.42857 5.94772 5.42857 6.5ZM6.44737 12.5C5.89508 12.5 5.44737 12.0523 5.44737 11.5C5.44737 10.9477 5.89508 10.5 6.44737 10.5H22.4156C22.9679 10.5 23.4156 10.9477 23.4156 11.5C23.4156 12.0523 22.9679 12.5 22.4156 12.5H6.44737ZM5.44737 16.5C5.44737 17.0523 5.89508 17.5 6.44737 17.5H22.4156C22.9679 17.5 23.4156 17.0523 23.4156 16.5C23.4156 15.9477 22.9679 15.5 22.4156 15.5H6.44737C5.89508 15.5 5.44737 15.9477 5.44737 16.5Z" fill="white"/>
</mask>
<g mask="url(#mask0_0_16179)">
<rect width="30" height="30" fill="#E1E1E3"/>
<rect x="5.09998" y="4.8" width="19.8" height="16.8" fill="#F24C39"/>
</g>
</svg>
